/* XPM */
static const char * iconcos_xpm[] = {
"32 32 78 1",
" 	c #FFFFFF",
".	c #CECECE",
"+	c #767676",
"@	c #2E2E2E",
"#	c #585858",
"$	c #969696",
"%	c #E9E9E9",
"&	c #C4C4C4",
"*	c #696969",
"=	c #262626",
"-	c #606060",
";	c #BABABA",
">	c #FDFDFD",
",	c #EDEDED",
"'	c #989898",
")	c #515151",
"!	c #3B3B3B",
"~	c #737373",
"{	c #BEBEBE",
"]	c #C0C0C0",
"^	c #3D3D3D",
"/	c #D3D3D3",
"(	c #F9F9F9",
"_	c #F1F1F1",
":	c #B6B6B6",
"<	c #CFCFCF",
"[	c #BBBBBB",
"}	c #4D4D4D",
"|	c #DBDBDB",
"1	c #FAFAFA",
"2	c #E2E2E2",
"3	c #5F5F5F",
"4	c #AAAAAA",
"5	c #FEFEFE",
"6	c #A8A8A8",
"7	c #F6F6F6",
"8	c #D7D7D7",
"9	c #949494",
"0	c #FBFBFB",
"a	c #383838",
"b	c #C2C2C2",
"c	c #D1D1D1",
"d	c #161616",
"e	c #F3F3F3",
"f	c #000000",
"g	c #CDCDCD",
"h	c #E8E8E8",
"i	c #DEDEDE",
"j	c #EAEAEA",
"k	c #DFDFDF",
"l	c #DCDCDC",
"m	c #828282",
"n	c #B0B0B0",
"o	c #D5D5D5",
"p	c #FCFCFC",
"q	c #E0E0E0",
"r	c #B8B8B8",
"s	c #8F8F8F",
"t	c #7F7F7F",
"u	c #323232",
"v	c #BDBDBD",
"w	c #D8D8D8",
"x	c #EEEEEE",
"y	c #B9B9B9",
"z	c #424242",
"A	c #D0D0D0",
"B	c #494949",
"C	c #A7A7A7",
"D	c #E3E3E3",
"E	c #F7F7F7",
"F	c #AEAEAE",
"G	c #5A5A5A",
"H	c #787878",
"I	c #959595",
"J	c #686868",
"K	c #5D5D5D",
"L	c #A5A5A5",
"M	c #9A9A9A",
"                                ",
"                                ",
"                                ",
"                                ",
"                                ",
"                                ",
"                                ",
"                                ",
"                                ",
"                                ",
"                                ",
"                                ",
"      .+@#$%  &*=-;>  ,')!~{    ",
"     ]^/(_:< [}|1234 5367(89    ",
"    0![     0ab   cdeefg        ",
"    hfi     jfk   ,fl $dmnop    ",
"    hfk     %fk   ,fl  qrs@t>   ",
"    0uv     0a]   cde     wfx   ",
"     yzo(_{A yB|123C %'D0EFG>   ",
"      .H!)Ij  bJ=Ky> 7LJu)M,    ",
"                                ",
"                                ",
"                                ",
"                                ",
"                                ",
"                                ",
"                                ",
"                                ",
"                                ",
"                                ",
"                                ",
"                                "};
