/* XPM */
static const char * iconmultiply_xpm[] = {
"32 32 51 1",
" 	c #FFFFFF",
".	c #757575",
"+	c #8B8B8B",
"@	c #7A7A7A",
"#	c #909090",
"$	c #BDBDBD",
"%	c #9F9F9F",
"&	c #EDEDED",
"*	c #808080",
"=	c #949494",
"-	c #EAEAEA",
";	c #999999",
">	c #CBCBCB",
",	c #C7C7C7",
"'	c #565656",
")	c #1C1C1C",
"!	c #A3A3A3",
"~	c #EFEFEF",
"{	c #848484",
"]	c #989898",
"^	c #ECECEC",
"/	c #9C9C9C",
"(	c #0D0D0D",
"_	c #606060",
":	c #D0D0D0",
"<	c #FBFBFB",
"[	c #5C5C5C",
"}	c #222222",
"|	c #3D3D3D",
"1	c #454545",
"2	c #161616",
"3	c #696969",
"4	c #CDCDCD",
"5	c #FDFDFD",
"6	c #F9F9F9",
"7	c #000000",
"8	c #929292",
"9	c #2A2A2A",
"0	c #474747",
"a	c #636363",
"b	c #FCFCFC",
"c	c #C8C8C8",
"d	c #A6A6A6",
"e	c #F1F1F1",
"f	c #818181",
"g	c #9E9E9E",
"h	c #5F5F5F",
"i	c #CFCFCF",
"j	c #EEEEEE",
"k	c #7D7D7D",
"l	c #787878",
"                                ",
"                                ",
"                                ",
"                                ",
"                                ",
"                                ",
"                                ",
"                                ",
"                                ",
"                                ",
"                                ",
"                .+              ",
"                @#              ",
"           $%&  *=  -;>         ",
"           ,')!~{]^/(_:         ",
"            <,[}|12345          ",
"              6{778<            ",
"            <,[9|0)a>b          ",
"           c')def]&g(hi         ",
"           $%j  k=  -;>         ",
"                l#              ",
"                .+              ",
"                                ",
"                                ",
"                                ",
"                                ",
"                                ",
"                                ",
"                                ",
"                                ",
"                                ",
"                                "};
