/* XPM */
static const char * icondelete_xpm[] = {
"32 32 50 1",
" 	c #FFFFFF",
".	c #FAFAFA",
"+	c #BEBEBE",
"@	c #BBBBBB",
"#	c #DEDEDE",
"$	c #858585",
"%	c #929292",
"&	c #161616",
"*	c #A8A8A8",
"=	c #C0C0C0",
"-	c #B5B5B5",
";	c #1C1C1C",
">	c #6C6C6C",
",	c #B6B6B6",
"'	c #848484",
")	c #AFAFAF",
"!	c #D1D1D1",
"~	c #626262",
"{	c #EFEFEF",
"]	c #F7F7F7",
"^	c #7A7A7A",
"/	c #C3C3C3",
"(	c #F9F9F9",
"_	c #AEAEAE",
":	c #7C7C7C",
"<	c #838383",
"[	c #ADADAD",
"}	c #D0D0D0",
"|	c #636363",
"1	c #E8E8E8",
"2	c #BABABA",
"3	c #8C8C8C",
"4	c #9F9F9F",
"5	c #C8C8C8",
"6	c #000000",
"7	c #585858",
"8	c #ECECEC",
"9	c #F8F8F8",
"0	c #7D7D7D",
"a	c #969696",
"b	c #F0F0F0",
"c	c #5C5C5C",
"d	c #EEEEEE",
"e	c #B9B9B9",
"f	c #CFCFCF",
"g	c #5F5F5F",
"h	c #CECECE",
"i	c #CDCDCD",
"j	c #2E2E2E",
"k	c #0D0D0D",
"                                ",
"                                ",
"                                ",
"                                ",
"                                ",
"                                ",
"                                ",
"                                ",
"                                ",
"            .+@@@@@@@@@@#       ",
"           .$%&*=====-;>,       ",
"          .') !~{   ]^@/,       ",
"         ('_   !~{ ]:@ /,       ",
"        (<[     }|1:2  /,       ",
"        34       56_   /,       ",
"        !78     90a|b  /,       ",
"         }cd   90e }|b /,       ",
"          fg{ 90e   }|b/,       ",
"           h~10e     }|[,       ",
"            i&6jjjjjjjk6,       ",
"                                ",
"                                ",
"                                ",
"                                ",
"                                ",
"                                ",
"                                ",
"                                ",
"                                ",
"                                ",
"                                ",
"                                "};
