/* XPM */
static const char * icon8_xpm[] = {
"32 32 86 1",
" 	c #FFFFFF",
".	c #EBEBEB",
"+	c #A9A9A9",
"@	c #696969",
"#	c #323232",
"$	c #353535",
"%	c #A7A7A7",
"&	c #E8E8E8",
"*	c #C5C5C5",
"=	c #222222",
"-	c #000000",
";	c #161616",
">	c #C0C0C0",
",	c #D6D6D6",
"'	c #909090",
")	c #E3E3E3",
"!	c #F9F9F9",
"~	c #F6F6F6",
"{	c #DDDDDD",
"]	c #818181",
"^	c #D7D7D7",
"/	c #7C7C7C",
"(	c #828282",
"_	c #FDFDFD",
":	c #FCFCFC",
"<	c #727272",
"[	c #898989",
"}	c #262626",
"|	c #BDBDBD",
"1	c #B7B7B7",
"2	c #5D5D5D",
"3	c #4F4F4F",
"4	c #A3A3A3",
"5	c #AFAFAF",
"6	c #A6A6A6",
"7	c #1C1C1C",
"8	c #CDCDCD",
"9	c #666666",
"0	c #CBCBCB",
"a	c #F5F5F5",
"b	c #838383",
"c	c #FEFEFE",
"d	c #A8A8A8",
"e	c #919191",
"f	c #A5A5A5",
"g	c #454545",
"h	c #B6B6B6",
"i	c #FBFBFB",
"j	c #656565",
"k	c #474747",
"l	c #B2B2B2",
"m	c #999999",
"n	c #EFEFEF",
"o	c #4D4D4D",
"p	c #EEEEEE",
"q	c #AAAAAA",
"r	c #494949",
"s	c #E4E4E4",
"t	c #5F5F5F",
"u	c #D3D3D3",
"v	c #F8F8F8",
"w	c #D5D5D5",
"x	c #E0E0E0",
"y	c #BEBEBE",
"z	c #D0D0D0",
"A	c #C8C8C8",
"B	c #ECECEC",
"C	c #DBDBDB",
"D	c #0D0D0D",
"E	c #969696",
"F	c #9B9B9B",
"G	c #424242",
"H	c #FAFAFA",
"I	c #8D8D8D",
"J	c #E2E2E2",
"K	c #F7F7F7",
"L	c #E1E1E1",
"M	c #8E8E8E",
"N	c #CACACA",
"O	c #9D9D9D",
"P	c #C4C4C4",
"Q	c #606060",
"R	c #2E2E2E",
"S	c #6E6E6E",
"T	c #ADADAD",
"U	c #EDEDED",
"                                ",
"                                ",
"                                ",
"                                ",
"                                ",
"                                ",
"            .+@#$@%&            ",
"           *=------;>           ",
"          ,--')!~{]--^          ",
"          /-(_    :<-[          ",
"          }-|      1-2          ",
"          3-4      5-(          ",
"          6-78    _9-0          ",
"          a<--b,:cd-e_          ",
"           !f---g<7hi           ",
"           {jkl<---mn           ",
"          ^7op  &q=-rs          ",
"         !o-8     .t-9:         ",
"         u--v      w--x         ",
"         y-}       p--z         ",
"         A--B      )--C         ",
"         pD-Ec     F-GH         ",
"          %--IJiKLM--N          ",
"          :O-------}P           ",
"            {OQR$STU            ",
"                                ",
"                                ",
"                                ",
"                                ",
"                                ",
"                                ",
"                                "};
