/* XPM */
static const char * iconsin_xpm[] = {
"32 32 58 1",
" 	c #FFFFFF",
".	c #909090",
"+	c #727272",
"@	c #EDEDED",
"#	c #989898",
"$	c #515151",
"%	c #3B3B3B",
"&	c #737373",
"*	c #BEBEBE",
"=	c #A4A4A4",
"-	c #888888",
";	c #A1A1A1",
">	c #8B8B8B",
",	c #D0D0D0",
"'	c #717171",
")	c #323232",
"!	c #7A7A7A",
"~	c #E5E5E5",
"{	c #FEFEFE",
"]	c #5F5F5F",
"^	c #A8A8A8",
"/	c #F6F6F6",
"(	c #F9F9F9",
"_	c #D7D7D7",
":	c #949494",
"<	c #B8B8B8",
"[	c #F3F3F3",
"}	c #F7F7F7",
"|	c #9C9C9C",
"1	c #606060",
"2	c #FDFDFD",
"3	c #000000",
"4	c #CDCDCD",
"5	c #8C8C8C",
"6	c #DFDFDF",
"7	c #EFEFEF",
"8	c #969696",
"9	c #161616",
"0	c #828282",
"a	c #B0B0B0",
"b	c #D5D5D5",
"c	c #FCFCFC",
"d	c #E8E8E8",
"e	c #E7E7E7",
"f	c #E0E0E0",
"g	c #8F8F8F",
"h	c #2E2E2E",
"i	c #7F7F7F",
"j	c #E9E9E9",
"k	c #D8D8D8",
"l	c #EEEEEE",
"m	c #E3E3E3",
"n	c #FBFBFB",
"o	c #AEAEAE",
"p	c #5A5A5A",
"q	c #A5A5A5",
"r	c #686868",
"s	c #9A9A9A",
"                                ",
"                                ",
"                                ",
"                                ",
"                                ",
"                                ",
"                                ",
"                                ",
"                                ",
"               .+               ",
"                                ",
"                                ",
"       @#$%&*  =-  ;>,')!~      ",
"      {]^/(_:  =-  ;)<[}|12     ",
"      [34      =-  ;5   637     ",
"       890abc  =-  ;5   d3e     ",
"        f<ghi2 =-  ;5   j3e     ",
"           k3l =-  ;5   j3e     ",
"      j#mn}op2 =-  ;5   j3e     ",
"      /qr)$s@  =-  ;5   j3e     ",
"                                ",
"                                ",
"                                ",
"                                ",
"                                ",
"                                ",
"                                ",
"                                ",
"                                ",
"                                ",
"                                ",
"                                "};
