/* XPM */
static const char * iconnegative_xpm[] = {
"32 32 49 1",
" 	c #FFFFFF",
".	c #DBDBDB",
"+	c #0D0D0D",
"@	c #D1D1D1",
"#	c #B3B3B3",
"$	c #3B3B3B",
"%	c #EEEEEE",
"&	c #F6F6F6",
"*	c #515151",
"=	c #B6B6B6",
"-	c #8F8F8F",
";	c #7D7D7D",
">	c #FEFEFE",
",	c #B7B7B7",
"'	c #5F5F5F",
")	c #FBFBFB",
"!	c #2A2A2A",
"~	c #D5D5D5",
"{	c #FCFCFC",
"]	c #424242",
"^	c #C5C5C5",
"/	c #A3A3A3",
"(	c #808080",
"_	c #DEDEDE",
":	c #161616",
"<	c #F3F3F3",
"[	c #BCBCBC",
"}	c #787878",
"|	c #222222",
"1	c #D8D8D8",
"2	c #ABABAB",
"3	c #9C9C9C",
"4	c #686868",
"5	c #CBCBCB",
"6	c #9F9F9F",
"7	c #A5A5A5",
"8	c #626262",
"9	c #000000",
"0	c #979797",
"a	c #C2C2C2",
"b	c #6A6A6A",
"c	c #797979",
"d	c #FDFDFD",
"e	c #F4F4F4",
"f	c #DDDDDD",
"g	c #A4A4A4",
"h	c #2E2E2E",
"i	c #B4B4B4",
"j	c #DADADA",
"                                ",
"                                ",
"                                ",
"                                ",
"                                ",
"                                ",
"                                ",
"                                ",
"                                ",
"         .+@         #$%        ",
"        &*=           -;>       ",
"        ,')           %!~       ",
"       {]^             /(       ",
"       _:<             .+&      ",
"       [}              {|1      ",
"       23               45      ",
"       67     89990     }a      ",
"       23               b5      ",
"       [c              d!1      ",
"       _:e             f+&      ",
"       {]^             g(       ",
"        ,')           %h~       ",
"        &*i           -;>       ",
"         j+@         #$%        ",
"                                ",
"                                ",
"                                ",
"                                ",
"                                ",
"                                ",
"                                ",
"                                "};
