/* XPM */
static const char * icon1_xpm[] = {
"32 32 13 1",
" 	c #FFFFFF",
".	c #C4C4C4",
"+	c #000000",
"@	c #B9B9B9",
"#	c #FCFCFC",
"$	c #7D7D7D",
"%	c #FEFEFE",
"&	c #F4F4F4",
"*	c #DFDFDF",
"=	c #8C8C8C",
"-	c #A7A7A7",
";	c #727272",
">	c #E3E3E3",
"                                ",
"                                ",
"                                ",
"                                ",
"                                ",
"                                ",
"               .+@              ",
"              #$+@              ",
"           %&*=++@              ",
"           -+++++@              ",
"           -+++++@              ",
"               ;+@              ",
"               ;+@              ",
"               ;+@              ",
"               ;+@              ",
"               ;+@              ",
"               ;+@              ",
"               ;+@              ",
"               ;+@              ",
"               ;+@              ",
"               ;+@              ",
"               ;+@              ",
"               ;+@              ",
"           -+++++++++>          ",
"           -+++++++++>          ",
"                                ",
"                                ",
"                                ",
"                                ",
"                                ",
"                                ",
"                                "};
