/* XPM */
static const char * icon9_xpm[] = {
"32 32 81 1",
" 	c #FFFFFF",
".	c #E9E9E9",
"+	c #A4A4A4",
"@	c #606060",
"#	c #2A2A2A",
"$	c #494949",
"%	c #8A8A8A",
"&	c #CCCCCC",
"*	c #FCFCFC",
"=	c #C0C0C0",
"-	c #161616",
";	c #000000",
">	c #7E7E7E",
",	c #F5F5F5",
"'	c #C8C8C8",
")	c #A6A6A6",
"!	c #ECECEC",
"~	c #EEEEEE",
"{	c #C3C3C3",
"]	c #2E2E2E",
"^	c #888888",
"/	c #FEFEFE",
"(	c #F6F6F6",
"_	c #404040",
":	c #A9A9A9",
"<	c #D7D7D7",
"[	c #D6D6D6",
"}	c #CECECE",
"|	c #F2F2F2",
"1	c #878787",
"2	c #8D8D8D",
"3	c #B1B1B1",
"4	c #535353",
"5	c #C2C2C2",
"6	c #3B3B3B",
"7	c #FDFDFD",
"8	c #AAAAAA",
"9	c #5F5F5F",
"0	c #DADADA",
"a	c #EFEFEF",
"b	c #BABABA",
"c	c #262626",
"d	c #FAFAFA",
"e	c #E2E2E2",
"f	c #E8E8E8",
"g	c #E0E0E0",
"h	c #E3E3E3",
"i	c #848484",
"j	c #0D0D0D",
"k	c #B4B4B4",
"l	c #FBFBFB",
"m	c #F7F7F7",
"n	c #E7E7E7",
"o	c #BCBCBC",
"p	c #5D5D5D",
"q	c #EAEAEA",
"r	c #F3F3F3",
"s	c #737373",
"t	c #454545",
"u	c #C4C4C4",
"v	c #808080",
"w	c #555555",
"x	c #222222",
"y	c #515151",
"z	c #909090",
"A	c #D2D2D2",
"B	c #CACACA",
"C	c #424242",
"D	c #898989",
"E	c #DBDBDB",
"F	c #A2A2A2",
"G	c #F8F8F8",
"H	c #A7A7A7",
"I	c #1C1C1C",
"J	c #A3A3A3",
"K	c #6D6D6D",
"L	c #BBBBBB",
"M	c #9E9E9E",
"N	c #585858",
"O	c #818181",
"P	c #BDBDBD",
"                                ",
"                                ",
"                                ",
"                                ",
"                                ",
"                                ",
"            .+@#$%&*            ",
"           =-;;;;;;>,           ",
"          ';;)!*~{];^/          ",
"         (_;:     <;;[          ",
"         };;|      1;2          ",
"         3;4       5;67         ",
"         8;9       0;;a         ",
"         b;cd      e;;f         ",
"         g;;=      e;;h         ",
"          i;jk~lmnop;;q         ",
"          rs;;;;;;;t;;|         ",
"           luvwxyzAB;C          ",
"                   :;D          ",
"                  *w;'          ",
"                  {;_m          ",
"                 E#;'           ",
"           Fe*GeHI;J/           ",
"           K;;;;;]L/            ",
"           MCcNOPa              ",
"                                ",
"                                ",
"                                ",
"                                ",
"                                ",
"                                ",
"                                "};
