/* XPM */
static const char * iconadd_xpm[] = {
"32 32 6 1",
" 	c #FFFFFF",
".	c #808080",
"+	c #000000",
"@	c #E0E0E0",
"#	c #C5C5C5",
"$	c #5C5C5C",
"                                ",
"                                ",
"                                ",
"                                ",
"                                ",
"                                ",
"                                ",
"                                ",
"                                ",
"               .+@              ",
"               .+@              ",
"               .+@              ",
"               .+@              ",
"               .+@              ",
"               .+@              ",
"               .+@              ",
"        #++++++++++++++$        ",
"        #++++++++++++++$        ",
"               .+@              ",
"               .+@              ",
"               .+@              ",
"               .+@              ",
"               .+@              ",
"               .+@              ",
"               .+@              ",
"                                ",
"                                ",
"                                ",
"                                ",
"                                ",
"                                ",
"                                "};
