/* XPM */
static const char * icon6_xpm[] = {
"32 32 76 1",
" 	c #FFFFFF",
".	c #EEEEEE",
"+	c #BBBBBB",
"@	c #7F7F7F",
"#	c #585858",
"$	c #262626",
"%	c #494949",
"&	c #ACACAC",
"*	c #FDFDFD",
"=	c #B4B4B4",
"-	c #222222",
";	c #000000",
">	c #848484",
",	c #989898",
"'	c #161616",
")	c #A7A7A7",
"!	c #E2E2E2",
"~	c #F8F8F8",
"{	c #FBFBFB",
"]	c #DADADA",
"^	c #A8A8A8",
"/	c #2E2E2E",
"(	c #DBDBDB",
"_	c #F0F0F0",
":	c #2A2A2A",
"<	c #C7C7C7",
"[	c #B9B9B9",
"}	c #656565",
"|	c #6C6C6C",
"1	c #B6B6B6",
"2	c #F9F9F9",
"3	c #0D0D0D",
"4	c #D4D4D4",
"5	c #CECECE",
"6	c #8D8D8D",
"7	c #4D4D4D",
"8	c #454545",
"9	c #828282",
"0	c #C9C9C9",
"a	c #E7E7E7",
"b	c #F7F7F7",
"c	c #DEDEDE",
"d	c #6E6E6E",
"e	c #E9E9E9",
"f	c #EAEAEA",
"g	c #AAAAAA",
"h	c #D8D8D8",
"i	c #EDEDED",
"j	c #AFAFAF",
"k	c #DDDDDD",
"l	c #ECECEC",
"m	c #F2F2F2",
"n	c #CACACA",
"o	c #E5E5E5",
"p	c #323232",
"q	c #FAFAFA",
"r	c #1C1C1C",
"s	c #D0D0D0",
"t	c #C2C2C2",
"u	c #9A9A9A",
"v	c #DCDCDC",
"w	c #DFDFDF",
"x	c #9E9E9E",
"y	c #5A5A5A",
"z	c #FCFCFC",
"A	c #808080",
"B	c #3B3B3B",
"C	c #C6C6C6",
"D	c #9F9F9F",
"E	c #D6D6D6",
"F	c #F3F3F3",
"G	c #767676",
"H	c #CBCBCB",
"I	c #C5C5C5",
"J	c #818181",
"K	c #424242",
"                                ",
"                                ",
"                                ",
"                                ",
"                                ",
"                                ",
"              .+@#$%&           ",
"            *=-;;;;;>           ",
"           *,;')!~{]^           ",
"           +;/(                 ",
"          _:;<                  ",
"          [;}*                  ",
"          |;1                   ",
"         23;4567-890*           ",
"         a;;8;;;;;;;>b          ",
"         c;;d<e~2fg;;,          ",
"         h;;i      j;;i         ",
"         k;;l      m;;n         ",
"         a;;o       p;+         ",
"         qr;s       -;t         ",
"          @;u      e;;v         ",
"          5;'w     x;yz         ",
"          *A;BC_zfD;3E          ",
"           FG;;;;;;$H           ",
"            {IJK:}gi            ",
"                                ",
"                                ",
"                                ",
"                                ",
"                                ",
"                                ",
"                                "};
