/* XPM */
static const char * icon7_xpm[] = {
"32 32 45 1",
" 	c #FFFFFF",
".	c #F0F0F0",
"+	c #000000",
"@	c #D8D8D8",
"#	c #F6F6F6",
"$	c #404040",
"%	c #B4B4B4",
"&	c #383838",
"*	c #F4F4F4",
"=	c #AFAFAF",
"-	c #F2F2F2",
";	c #2E2E2E",
">	c #B9B9B9",
",	c #AAAAAA",
"'	c #474747",
")	c #F8F8F8",
"!	c #262626",
"~	c #BEBEBE",
"{	c #A3A3A3",
"]	c #4F4F4F",
"^	c #F9F9F9",
"/	c #EDEDED",
"(	c #1C1C1C",
"_	c #C2C2C2",
":	c #9E9E9E",
"<	c #565656",
"[	c #FBFBFB",
"}	c #EAEAEA",
"|	c #0D0D0D",
"1	c #C7C7C7",
"2	c #979797",
"3	c #5D5D5D",
"4	c #FCFCFC",
"5	c #E7E7E7",
"6	c #CBCBCB",
"7	c #919191",
"8	c #656565",
"9	c #FDFDFD",
"0	c #E4E4E4",
"a	c #CFCFCF",
"b	c #8A8A8A",
"c	c #6C6C6C",
"d	c #FEFEFE",
"e	c #DFDFDF",
"f	c #D3D3D3",
"                                ",
"                                ",
"                                ",
"                                ",
"                                ",
"                                ",
"         .++++++++++++@         ",
"         .++++++++++++@         ",
"                   #$+@         ",
"                   %+&*         ",
"                  *&+%          ",
"                  =+$#          ",
"                 -;+>           ",
"                 ,+')           ",
"                .!+~            ",
"                {+]^            ",
"               /(+_             ",
"               :+<[             ",
"              }|+1              ",
"              2+34              ",
"             5++6               ",
"             7+89               ",
"            0++a                ",
"            b+cd                ",
"           e++f                 ",
"                                ",
"                                ",
"                                ",
"                                ",
"                                ",
"                                ",
"                                "};
