/* XPM */
static const char * icon3_xpm[] = {
"32 32 68 1",
" 	c #FFFFFF",
".	c #ECECEC",
"+	c #BDBDBD",
"@	c #8C8C8C",
"#	c #555555",
"$	c #262626",
"%	c #383838",
"&	c #707070",
"*	c #ADADAD",
"=	c #EDEDED",
"-	c #CFCFCF",
";	c #000000",
">	c #D1D1D1",
",	c #C5C5C5",
"'	c #C8C8C8",
")	c #EEEEEE",
"!	c #FCFCFC",
"~	c #F5F5F5",
"{	c #5C5C5C",
"]	c #2A2A2A",
"^	c #CBCBCB",
"/	c #C7C7C7",
"(	c #FEFEFE",
"_	c #E9E9E9",
":	c #0D0D0D",
"<	c #BBBBBB",
"[	c #626262",
"}	c #A7A7A7",
"|	c #474747",
"1	c #2E2E2E",
"2	c #FAFAFA",
"3	c #EAEAEA",
"4	c #B0B0B0",
"5	c #353535",
"6	c #D6D6D6",
"7	c #848484",
"8	c #EBEBEB",
"9	c #4B4B4B",
"0	c #F6F6F6",
"a	c #FDFDFD",
"b	c #F4F4F4",
"c	c #D7D7D7",
"d	c #7E7E7E",
"e	c #535353",
"f	c #F0F0F0",
"g	c #F8F8F8",
"h	c #636363",
"i	c #9E9E9E",
"j	c #B3B3B3",
"k	c #494949",
"l	c #1C1C1C",
"m	c #9F9F9F",
"n	c #606060",
"o	c #888888",
"p	c #E8E8E8",
"q	c #AEAEAE",
"r	c #D9D9D9",
"s	c #FBFBFB",
"t	c #C3C3C3",
"u	c #454545",
"v	c #515151",
"w	c #585858",
"x	c #767676",
"y	c #424242",
"z	c #222222",
"A	c #4D4D4D",
"B	c #878787",
"C	c #F9F9F9",
"                                ",
"                                ",
"                                ",
"                                ",
"                                ",
"                                ",
"           .+@#$%&*=            ",
"          -;;;;;;;;$>           ",
"          ,;&')!~>{;])          ",
"          ^/(     _:;<          ",
"                   [;}          ",
"                  (|;<          ",
"                  >;1)          ",
"               234]56           ",
"              7;;;}8            ",
"              7;;;9*0           ",
"               abcd;ef          ",
"                  gh;i          ",
"                   j;k          ",
"                   +;l          ",
"                   m;n          ",
"          o=      p$;q          ",
"          1lmr~s8tu;vb          ",
"          w;;;;;;;;[p           ",
"          sc}xyzAB,C            ",
"                                ",
"                                ",
"                                ",
"                                ",
"                                ",
"                                ",
"                                "};
