/* XPM */
static const char * iconmod_xpm[] = {
"32 32 80 1",
" 	c #FFFFFF",
".	c #EDEDED",
"+	c #9B9B9B",
"@	c #4D4D4D",
"#	c #2A2A2A",
"$	c #696969",
"%	c #BBBBBB",
"&	c #FBFBFB",
"*	c #F5F5F5",
"=	c #383838",
"-	c #4F4F4F",
";	c #FAFAFA",
">	c #454545",
",	c #000000",
"'	c #949494",
")	c #B2B2B2",
"!	c #C1C1C1",
"~	c #9A9A9A",
"{	c #7F7F7F",
"]	c #ECECEC",
"^	c #F9F9F9",
"/	c #D3D3D3",
"(	c #323232",
"_	c #DCDCDC",
":	c #FDFDFD",
"<	c #E5E5E5",
"[	c #A6A6A6",
"}	c #ACACAC",
"|	c #F0F0F0",
"1	c #C7C7C7",
"2	c #8C8C8C",
"3	c #EAEAEA",
"4	c #0D0D0D",
"5	c #CECECE",
"6	c #808080",
"7	c #C2C2C2",
"8	c #353535",
"9	c #515151",
"0	c #E6E6E6",
"a	c #A7A7A7",
"b	c #989898",
"c	c #818181",
"d	c #D4D4D4",
"e	c #B3B3B3",
"f	c #636363",
"g	c #262626",
"h	c #535353",
"i	c #A1A1A1",
"j	c #404040",
"k	c #565656",
"l	c #F4F4F4",
"m	c #EBEBEB",
"n	c #999999",
"o	c #4B4B4B",
"p	c #FCFCFC",
"q	c #494949",
"r	c #DBDBDB",
"s	c #AFAFAF",
"t	c #B1B1B1",
"u	c #B9B9B9",
"v	c #D5D5D5",
"w	c #717171",
"x	c #EEEEEE",
"y	c #606060",
"z	c #F3F3F3",
"A	c #F8F8F8",
"B	c #B0B0B0",
"C	c #C3C3C3",
"D	c #979797",
"E	c #BABABA",
"F	c #656565",
"G	c #CDCDCD",
"H	c #E7E7E7",
"I	c #6C6C6C",
"J	c #7A7A7A",
"K	c #5A5A5A",
"L	c #5F5F5F",
"M	c #222222",
"N	c #A3A3A3",
"O	c #F1F1F1",
"                                ",
"                                ",
"                                ",
"                                ",
"                                ",
"                                ",
"      .+@#$%&      *=-;         ",
"     .>,,,,,'      ),!          ",
"     ~,{]^/(,_    *=-;          ",
"    :(,<   [,}    ),!           ",
"    |,,&   1,2   *=-;           ",
"    3,4    5,6   ),7            ",
"    |,,&   1,2  *89;            ",
"    :(,0   a,}  ),7             ",
"     b,c]^d(,_ *89; ^efghi|     ",
"     ]j,,,,,'  ),7 :c,,,,,kl    ",
"      mnog$%p l89; 5,qr;0$,s    ",
"              t,7  b,u   v,f    ",
"             l89;  w,v   x,,:   ",
"             t,7   y,r   z,,A   ",
"            l8h&   w,v   x,,:   ",
"            B,C    D,E   v,F    ",
"           l8h&    G,o_;HI,B    ",
"           B,C     pJ,,,,,K*    ",
"          l8h&      ABLMhNO     ",
"                                ",
"                                ",
"                                ",
"                                ",
"                                ",
"                                ",
"                                "};
