/* XPM */
static const char * icon2_xpm[] = {
"32 32 54 1",
" 	c #FFFFFF",
".	c #E5E5E5",
"+	c #B5B5B5",
"@	c #848484",
"#	c #4D4D4D",
"$	c #222222",
"%	c #494949",
"&	c #C4C4C4",
"*	c #FBFBFB",
"=	c #B9B9B9",
"-	c #000000",
";	c #6C6C6C",
">	c #F2F2F2",
",	c #ADADAD",
"'	c #838383",
")	c #D0D0D0",
"!	c #EEEEEE",
"~	c #B8B8B8",
"{	c #262626",
"]	c #7E7E7E",
"^	c #BBBBBB",
"/	c #D6D6D6",
"(	c #C2C2C2",
"_	c #E2E2E2",
":	c #F3F3F3",
"<	c #C5C5C5",
"[	c #C0C0C0",
"}	c #E9E9E9",
"|	c #B2B2B2",
"1	c #F0F0F0",
"2	c #3D3D3D",
"3	c #9F9F9F",
"4	c #7D7D7D",
"5	c #FEFEFE",
"6	c #999999",
"7	c #161616",
"8	c #D9D9D9",
"9	c #A5A5A5",
"0	c #CACACA",
"a	c #0D0D0D",
"b	c #C8C8C8",
"c	c #FDFDFD",
"d	c #9D9D9D",
"e	c #1C1C1C",
"f	c #CFCFCF",
"g	c #939393",
"h	c #2A2A2A",
"i	c #F6F6F6",
"j	c #808080",
"k	c #454545",
"l	c #E0E0E0",
"m	c #5D5D5D",
"n	c #EBEBEB",
"o	c #DEDEDE",
"                                ",
"                                ",
"                                ",
"                                ",
"                                ",
"                                ",
"           .+@#$%@&*            ",
"          =--------;>           ",
"          ,-')>*!~{-]           ",
"          ^/      (--_          ",
"                  :--<          ",
"                  *--[          ",
"                  }--)          ",
"                  |-$:          ",
"                 12-3           ",
"                *4-%>           ",
"               56-78            ",
"               9--0             ",
"             59-ab              ",
"            cd-ef               ",
"           *g-h/                ",
"          ij-kl                 ",
"         5;-mn                  ",
"         *------------o         ",
"         *------------o         ",
"                                ",
"                                ",
"                                ",
"                                ",
"                                ",
"                                ",
"                                "};
