/* XPM */
static const char * icon0_xpm[] = {
"32 32 66 1",
" 	c #FFFFFF",
".	c #F6F6F6",
"+	c #B6B6B6",
"@	c #727272",
"#	c #3D3D3D",
"$	c #404040",
"%	c #767676",
"&	c #BBBBBB",
"*	c #F9F9F9",
"=	c #ECECEC",
"-	c #555555",
";	c #000000",
">	c #656565",
",	c #F2F2F2",
"'	c #FDFDFD",
")	c #696969",
"!	c #606060",
"~	c #DADADA",
"{	c #F8F8F8",
"]	c #D5D5D5",
"^	c #515151",
"/	c #818181",
"(	c #CDCDCD",
"_	c #262626",
":	c #E3E3E3",
"<	c #DBDBDB",
"[	c #8E8E8E",
"}	c #979797",
"|	c #A3A3A3",
"1	c #FEFEFE",
"2	c #323232",
"3	c #C4C4C4",
"4	c #B7B7B7",
"5	c #5D5D5D",
"6	c #F0F0F0",
"7	c #D0D0D0",
"8	c #FAFAFA",
"9	c #E2E2E2",
"0	c #E5E5E5",
"a	c #EDEDED",
"b	c #EAEAEA",
"c	c #DFDFDF",
"d	c #E7E7E7",
"e	c #D7D7D7",
"f	c #EBEBEB",
"g	c #DEDEDE",
"h	c #CFCFCF",
"i	c #C9C9C9",
"j	c #5A5A5A",
"k	c #8D8D8D",
"l	c #999999",
"m	c #808080",
"n	c #A0A0A0",
"o	c #CCCCCC",
"p	c #E4E4E4",
"q	c #D8D8D8",
"r	c #FCFCFC",
"s	c #DCDCDC",
"t	c #D6D6D6",
"u	c #7A7A7A",
"v	c #626262",
"w	c #F1F1F1",
"x	c #B4B4B4",
"y	c #707070",
"z	c #3B3B3B",
"A	c #757575",
"                                ",
"                                ",
"                                ",
"                                ",
"                                ",
"                                ",
"            .+@#$%&*            ",
"           =-;;;;;;>,           ",
"          ');!~*{]^;/           ",
"          (;_=    :;;<          ",
"          [;}      /;|          ",
"         12;3      4;5          ",
"         6;;~      7;;8         ",
"         9;;0      <;;a         ",
"         <;;b      c;;d         ",
"         e;;=      9;;9         ",
"         <;;f      c;;d         ",
"         9;;d      <;;=         ",
"         6;;g      h;;8         ",
"         12;i      +;j          ",
"          k;l      m;n          ",
"          o;_a    p;;q          ",
"          r>;>s8{t-;u           ",
"           b^;;;;;;vw           ",
"            .xyzzA&*            ",
"                                ",
"                                ",
"                                ",
"                                ",
"                                ",
"                                ",
"                                "};
