/* XPM */
static const char * icondivide_xpm[] = {
"32 32 53 1",
" 	c #FFFFFF",
".	c #757575",
"+	c #000000",
"@	c #D8D8D8",
"#	c #E9E9E9",
"$	c #4B4B4B",
"%	c #FCFCFC",
"&	c #B2B2B2",
"*	c #ACACAC",
"=	c #FEFEFE",
"-	c #585858",
";	c #E5E5E5",
">	c #DDDDDD",
",	c #696969",
"'	c #A1A1A1",
")	c #BDBDBD",
"!	c #FAFAFA",
"~	c #3B3B3B",
"{	c #F0F0F0",
"]	c #D0D0D0",
"^	c #858585",
"/	c #8D8D8D",
"(	c #CBCBCB",
"_	c #F3F3F3",
":	c #161616",
"<	c #2E2E2E",
"[	c #F8F8F8",
"}	c #C2C2C2",
"|	c #9B9B9B",
"1	c #D9D9D9",
"2	c #EAEAEA",
"3	c #4F4F4F",
"4	c #FDFDFD",
"5	c #B3B3B3",
"6	c #AEAEAE",
"7	c #5A5A5A",
"8	c #E6E6E6",
"9	c #6D6D6D",
"0	c #A2A2A2",
"a	c #BEBEBE",
"b	c #0D0D0D",
"c	c #D1D1D1",
"d	c #888888",
"e	c #8E8E8E",
"f	c #CDCDCD",
"g	c #F4F4F4",
"h	c #1C1C1C",
"i	c #323232",
"j	c #C3C3C3",
"k	c #9E9E9E",
"l	c #767676",
"m	c #DBDBDB",
"n	c #515151",
"                                ",
"                                ",
"                                ",
"                                ",
"                                ",
"                  .+@           ",
"                 #+$%           ",
"                 &+*            ",
"                =-+;            ",
"                >+,             ",
"                '+)             ",
"               !~+{             ",
"               ]+^              ",
"               /+(              ",
"              _:<[              ",
"              }+|               ",
"              .+1               ",
"             2+34               ",
"             5+6                ",
"            =7+8                ",
"            >+9                 ",
"            0+a                 ",
"           !~b{                 ",
"           c+d                  ",
"           e+f                  ",
"          ghi[                  ",
"          j+k                   ",
"          l+m                   ",
"         2+n4                   ",
"                                ",
"                                ",
"                                "};
