/* XPM */
static const char * iconclear_xpm[] = {
"32 32 63 1",
" 	c #FFFFFF",
".	c #DDDDDD",
"+	c #AAAAAA",
"@	c #717171",
"#	c #494949",
"$	c #222222",
"%	c #7D7D7D",
"&	c #D8D8D8",
"*	c #FCFCFC",
"=	c #EFEFEF",
"-	c #828282",
";	c #000000",
">	c #4D4D4D",
",	c #D7D7D7",
"'	c #E9E9E9",
")	c #4B4B4B",
"!	c #2A2A2A",
"~	c #B0B0B0",
"{	c #E5E5E5",
"]	c #F8F8F8",
"^	c #F3F3F3",
"/	c #DBDBDB",
"(	c #AFAFAF",
"_	c #474747",
":	c #BEBEBE",
"<	c #656565",
"[	c #515151",
"}	c #E7E7E7",
"|	c #FAFAFA",
"1	c #B8B8B8",
"2	c #C2C2C2",
"3	c #BABABA",
"4	c #0D0D0D",
"5	c #DEDEDE",
"6	c #FDFDFD",
"7	c #949494",
"8	c #E4E4E4",
"9	c #D5D5D5",
"0	c #C6C6C6",
"a	c #1C1C1C",
"b	c #AEAEAE",
"c	c #454545",
"d	c #B7B7B7",
"e	c #C5C5C5",
"f	c #F4F4F4",
"g	c #E1E1E1",
"h	c #3B3B3B",
"i	c #929292",
"j	c #C3C3C3",
"k	c #323232",
"l	c #262626",
"m	c #ADADAD",
"n	c #E3E3E3",
"o	c #B5B5B5",
"p	c #6D6D6D",
"q	c #535353",
"r	c #D9D9D9",
"s	c #FEFEFE",
"t	c #D6D6D6",
"u	c #A3A3A3",
"v	c #6A6A6A",
"w	c #424242",
"x	c #7C7C7C",
"                                ",
"                                ",
"                                ",
"                                ",
"                                ",
"                                ",
"              .+@#$#%+&*        ",
"            =-;;;;;;;;;>,       ",
"           ');!~{]*^/(_;:       ",
"          ]<;[}       |12       ",
"          3;45                  ",
"         6#;7                   ",
"         8;;9                   ",
"         0;;^                   ",
"         1;a                    ",
"         b;c                    ",
"         d;a                    ",
"         e;;f                   ",
"         g;;9                   ",
"         *h;i                   ",
"          (;;.                  ",
"          f>;>{       *:j       ",
"           5k;lmn]*f5o[;:       ",
"            }p;;;;;;;;;qr       ",
"             stuvw$[xb/6        ",
"                                ",
"                                ",
"                                ",
"                                ",
"                                ",
"                                ",
"                                "};
