/* XPM */
static const char * icontan_xpm[] = {
"32 32 69 1",
" 	c #FFFFFF",
".	c #A7A7A7",
"+	c #848484",
"@	c #B3B3B3",
"#	c #000000",
"$	c #D5D5D5",
"%	c #797979",
"&	c #494949",
"*	c #353535",
"=	c #6A6A6A",
"-	c #BDBDBD",
";	c #A1A1A1",
">	c #8B8B8B",
",	c #D0D0D0",
"'	c #717171",
")	c #323232",
"!	c #7A7A7A",
"~	c #E5E5E5",
"{	c #C1C1C1",
"]	c #BBBBBB",
"^	c #F3F3F3",
"/	c #FBFBFB",
"(	c #DBDBDB",
"_	c #383838",
":	c #C5C5C5",
"<	c #B8B8B8",
"[	c #F7F7F7",
"}	c #9C9C9C",
"|	c #606060",
"1	c #FDFDFD",
"2	c #929292",
"3	c #959595",
"4	c #8C8C8C",
"5	c #DFDFDF",
"6	c #EFEFEF",
"7	c #F6F6F6",
"8	c #898989",
"9	c #636363",
"0	c #454545",
"a	c #0D0D0D",
"b	c #909090",
"c	c #E8E8E8",
"d	c #E7E7E7",
"e	c #FCFCFC",
"f	c #6C6C6C",
"g	c #D4D4D4",
"h	c #EEEEEE",
"i	c #F8F8F8",
"j	c #9D9D9D",
"k	c #E9E9E9",
"l	c #AFAFAF",
"m	c #7E7E7E",
"n	c #E2E2E2",
"o	c #9E9E9E",
"p	c #CDCDCD",
"q	c #2E2E2E",
"r	c #EAEAEA",
"s	c #FAFAFA",
"t	c #F2F2F2",
"u	c #C9C9C9",
"v	c #4B4B4B",
"w	c #A5A5A5",
"x	c #474747",
"y	c #B4B4B4",
"z	c #DDDDDD",
"A	c #727272",
"B	c #656565",
"C	c #B9B9B9",
"D	c #949494",
"                                ",
"                                ",
"                                ",
"                                ",
"                                ",
"                                ",
"                                ",
"                                ",
"                                ",
"                                ",
"     .+                         ",
"     .+                         ",
"    @####. $%&*=-   ;>,')!~     ",
"     .+    {]^/(_:  ;)<^[}|1    ",
"     .+         23  ;4   5#6    ",
"     .+    7]890ab  ;4   c#d    ",
"     .+   ef'ghijb  ;4   k#d    ",
"     lm   c#n   ob  ;4   k#d    ",
"     pqr  [_@stuvb  ;4   k#d    ",
"     ewx)y zAqBCDb  ;4   k#d    ",
"                                ",
"                                ",
"                                ",
"                                ",
"                                ",
"                                ",
"                                ",
"                                ",
"                                ",
"                                ",
"                                ",
"                                "};
