/* XPM */
static const char * iconequals_xpm[] = {
"32 32 4 1",
" 	c #FFFFFF",
".	c #FDFDFD",
"+	c #000000",
"@	c #C0C0C0",
"                                ",
"                                ",
"                                ",
"                                ",
"                                ",
"                                ",
"                                ",
"                                ",
"                                ",
"                                ",
"                                ",
"                                ",
"                                ",
"        .++++++++++++++@        ",
"        .++++++++++++++@        ",
"                                ",
"                                ",
"                                ",
"        .++++++++++++++@        ",
"        .++++++++++++++@        ",
"                                ",
"                                ",
"                                ",
"                                ",
"                                ",
"                                ",
"                                ",
"                                ",
"                                ",
"                                ",
"                                ",
"                                "};
