/* XPM */
static const char * icon4_xpm[] = {
"32 32 29 1",
" 	c #FFFFFF",
".	c #9C9C9C",
"+	c #000000",
"@	c #1C1C1C",
"#	c #C0C0C0",
"$	c #DDDDDD",
"%	c #161616",
"&	c #EFEFEF",
"*	c #494949",
"=	c #979797",
"-	c #FAFAFA",
";	c #737373",
">	c #B5B5B5",
",	c #D1D1D1",
"'	c #8D8D8D",
")	c #FEFEFE",
"!	c #626262",
"~	c #F6F6F6",
"{	c #DCDCDC",
"]	c #353535",
"^	c #E8E8E8",
"/	c #D0D0D0",
"(	c #AFAFAF",
"_	c #9B9B9B",
":	c #868686",
"<	c #FDFDFD",
"[	c #F8F8F8",
"}	c #5A5A5A",
"|	c #F5F5F5",
"                                ",
"                                ",
"                                ",
"                                ",
"                                ",
"                                ",
"                 .+@            ",
"                #++@            ",
"               $%++@            ",
"              &*+=+@            ",
"             -;+>,+@            ",
"             .+'),+@            ",
"            #+!~ ,+@            ",
"           {%]^  ,+@            ",
"          &*+/   ,+@            ",
"         -;+(    ,+@            ",
"         _+:<    ,+@            ",
"        [+}|     ,+@            ",
"        [+++++++++++++=         ",
"        [+++++++++++++=         ",
"                 ,+@            ",
"                 ,+@            ",
"                 ,+@            ",
"                 ,+@            ",
"                 ,+@            ",
"                                ",
"                                ",
"                                ",
"                                ",
"                                ",
"                                ",
"                                "};
