/* XPM */
static const char * icon5_xpm[] = {
"32 32 46 1",
" 	c #FFFFFF",
".	c #454545",
"+	c #000000",
"@	c #C8C8C8",
"#	c #3B3B3B",
"$	c #323232",
"%	c #161616",
"&	c #404040",
"*	c #757575",
"=	c #ADADAD",
"-	c #EBEBEB",
";	c #1C1C1C",
">	c #C5C5C5",
",	c #F7F7F7",
"'	c #5A5A5A",
")	c #DCDCDC",
"!	c #F3F3F3",
"~	c #4F4F4F",
"{	c #868686",
"]	c #B6B6B6",
"^	c #FDFDFD",
"/	c #CECECE",
"(	c #F4F4F4",
"_	c #C7C7C7",
":	c #FAFAFA",
"<	c #9B9B9B",
"[	c #6C6C6C",
"}	c #A7A7A7",
"|	c #DDDDDD",
"1	c #E4E4E4",
"2	c #222222",
"3	c #BDBDBD",
"4	c #909090",
"5	c #8C8C8C",
"6	c #D3D3D3",
"7	c #FBFBFB",
"8	c #EDEDED",
"9	c #3D3D3D",
"0	c #666666",
"a	c #F9F9F9",
"b	c #989898",
"c	c #6D6D6D",
"d	c #EEEEEE",
"e	c #D7D7D7",
"f	c #424242",
"g	c #898989",
"                                ",
"                                ",
"                                ",
"                                ",
"                                ",
"                                ",
"           .++++++++++          ",
"           .++++++++++          ",
"           .+@                  ",
"           .+@                  ",
"           .+@                  ",
"           .+@                  ",
"           .+@                  ",
"           .+#$%&*=-            ",
"           .+++++++;>           ",
"               ,-@'++)          ",
"                  !~+{          ",
"                   ]+%^         ",
"                   /++(         ",
"                   _++:         ",
"                   <+[          ",
"          }|      12+3          ",
"          4+56!78>9+0a          ",
"          b++++++++cd           ",
"          ^e}*f2~g@7            ",
"                                ",
"                                ",
"                                ",
"                                ",
"                                ",
"                                ",
"                                "};
